<svg width="11" height="11" viewBox="0 0 11 11" fill="none" xmlns="http://www.w3.org/2000/svg">
<g clip-path="url(#clip0_532_239)">
<path d="M10.3913 0C10.5584 0 10.7016 0.0596788 10.821 0.179036C10.9403 0.298394 11 0.441623 11 0.608724V10.3913C11 10.5584 10.9403 10.7016 10.821 10.821C10.7016 10.9403 10.5584 11 10.3913 11H7.59115V6.73893H9.01628L9.23112 5.07747H7.59115V4.01758C7.59115 3.75022 7.64724 3.5497 7.75944 3.41602C7.87164 3.28234 8.09006 3.21549 8.41471 3.21549L9.28841 3.20833V1.72591C8.98763 1.68294 8.56272 1.66146 8.01367 1.66146C7.36437 1.66146 6.84516 1.85243 6.45605 2.23438C6.06695 2.61632 5.8724 3.15582 5.8724 3.85286V5.07747H4.4401V6.73893H5.8724V11H0.608724C0.441623 11 0.298394 10.9403 0.179036 10.821C0.0596788 10.7016 0 10.5584 0 10.3913V0.608724C0 0.441623 0.0596788 0.298394 0.179036 0.179036C0.298394 0.0596788 0.441623 0 0.608724 0H10.3913Z" fill="black"/>
</g>
<defs>
<clipPath id="clip0_532_239">
<rect width="11" height="11" fill="white"/>
</clipPath>
</defs>
</svg>
