<svg width="10" height="10" viewBox="0 0 10 10" fill="none" xmlns="http://www.w3.org/2000/svg">
<g clip-path="url(#clip0_531_443)">
<path d="M8.52047 8.52047H7.03879V6.20004C7.03879 5.64672 7.02891 4.93442 6.26816 4.93442C5.49645 4.93442 5.37836 5.53731 5.37836 6.15977V8.52032H3.89672V3.7486H5.3191V4.40071H5.33902C5.48137 4.15731 5.68707 3.95708 5.93421 3.82134C6.18136 3.6856 6.46069 3.61943 6.74246 3.62989C8.24422 3.62989 8.52109 4.6177 8.52109 5.90278L8.52047 8.52047ZM2.22484 3.09637C1.74996 3.09645 1.36492 2.71153 1.36484 2.23665C1.36477 1.76176 1.74965 1.37672 2.22453 1.37665C2.69941 1.37653 3.08445 1.76145 3.08453 2.23633C3.08457 2.46438 2.99402 2.68311 2.8328 2.84439C2.67158 3.00568 2.45289 3.09632 2.22484 3.09637ZM2.9657 8.52051H1.48246V3.7486H2.96566V8.52047L2.9657 8.52051ZM9.25914 0.000590479H0.73793C0.335195 -0.00394077 0.00492187 0.318676 0 0.721411V9.27817C0.00476563 9.6811 0.335 10.004 0.737891 9.99981H9.25914C9.66289 10.0048 9.99441 9.68188 10 9.27817V0.720747C9.99426 0.317231 9.6627 -0.00534702 9.25914 -7.35833e-05" fill="black"/>
</g>
<defs>
<clipPath id="clip0_531_443">
<rect width="10" height="10" fill="white"/>
</clipPath>
</defs>
</svg>
