<svg width="11" height="11" viewBox="0 0 11 11" fill="none" xmlns="http://www.w3.org/2000/svg">
<path d="M9.86928 3.25952C9.87626 3.35723 9.87626 3.45496 9.87626 3.55267C9.87626 6.53298 7.60787 9.967 3.46193 9.967C2.18464 9.967 0.9981 9.59706 0 8.95496C0.181478 8.97589 0.355953 8.98287 0.544414 8.98287C1.59833 8.98287 2.56852 8.62692 3.34327 8.01968C2.35215 7.99873 1.52157 7.34963 1.23539 6.45622C1.375 6.47715 1.51458 6.49111 1.66117 6.49111C1.86358 6.49111 2.066 6.46318 2.25444 6.41435C1.22145 6.20494 0.446682 5.29759 0.446682 4.20178V4.17387C0.746797 4.34138 1.09581 4.44608 1.46571 4.46002C0.858473 4.05519 0.460646 3.36421 0.460646 2.58248C0.460646 2.16371 0.572301 1.77982 0.767744 1.4448C1.87752 2.81281 3.54567 3.7062 5.41621 3.80393C5.38132 3.63642 5.36037 3.46194 5.36037 3.28745C5.36037 2.04505 6.36545 1.033 7.61481 1.033C8.26392 1.033 8.85021 1.30521 9.26202 1.74493C9.77152 1.64722 10.2601 1.45876 10.6929 1.20052C10.5253 1.72401 10.1694 2.16373 9.70174 2.4429C10.1554 2.39406 10.5951 2.2684 11 2.09392C10.6929 2.54061 10.309 2.93843 9.86928 3.25952Z" fill="black"/>
</svg>
