<svg width="22" height="22" viewBox="0 0 22 22" fill="none" xmlns="http://www.w3.org/2000/svg">
<g clip-path="url(#clip0_1042_10)">
<path d="M19.2494 15.5832V7.33317H6.41602V15.5832H19.2494ZM19.2494 2.74984C19.7356 2.74984 20.2019 2.94299 20.5457 3.28681C20.8895 3.63062 21.0827 4.09694 21.0827 4.58317V15.5832C21.0827 16.0694 20.8895 16.5357 20.5457 16.8795C20.2019 17.2234 19.7356 17.4165 19.2494 17.4165H6.41602C5.92979 17.4165 5.46347 17.2234 5.11965 16.8795C4.77584 16.5357 4.58268 16.0694 4.58268 15.5832V4.58317C4.58268 4.09694 4.77584 3.63062 5.11965 3.28681C5.46347 2.94299 5.92979 2.74984 6.41602 2.74984H7.33268V0.916504H9.16602V2.74984H16.4994V0.916504H18.3327V2.74984H19.2494ZM16.0685 10.1382L11.9985 14.2082L9.54185 11.7515L10.5135 10.7798L11.9985 12.2648L15.0968 9.1665L16.0685 10.1382ZM2.74935 19.2498H15.5827V21.0832H2.74935C2.26312 21.0832 1.7968 20.89 1.45299 20.5462C1.10917 20.2024 0.916016 19.7361 0.916016 19.2498V8.24984H2.74935V19.2498Z" fill="#002F72"/>
</g>
<defs>
<clipPath id="clip0_1042_10">
<rect width="22" height="22" fill="white"/>
</clipPath>
</defs>
</svg>
