<svg width="22" height="22" viewBox="0 0 22 22" fill="none" xmlns="http://www.w3.org/2000/svg">
<g clip-path="url(#clip0_195_983)">
<path d="M20.1665 0.916675H13.7498C13.225 0.914525 12.7162 1.09699 12.3123 1.43214C11.9084 1.7673 11.6353 2.2338 11.5407 2.75001L10.6973 7.37918C10.6391 7.70169 10.6524 8.03308 10.7363 8.34989C10.8203 8.66669 10.9728 8.96118 11.1832 9.21251C11.3947 9.46396 11.6584 9.66636 11.956 9.80566C12.2536 9.94496 12.5779 10.0178 12.9065 10.0192H15.5832L15.354 10.6242C15.1848 11.0728 15.1261 11.5555 15.1827 12.0316C15.2393 12.5076 15.4096 12.9631 15.6793 13.3595C15.9489 13.7559 16.31 14.0816 16.732 14.3091C17.1541 14.5367 17.6246 14.6593 18.104 14.6667C18.2819 14.6681 18.4563 14.6177 18.6061 14.5217C18.7558 14.4256 18.8744 14.2881 18.9473 14.1258L21.0007 9.48751C21.0474 9.38646 21.0754 9.27774 21.0832 9.16667V1.83334C21.0832 1.59023 20.9866 1.35707 20.8147 1.18516C20.6428 1.01325 20.4096 0.916675 20.1665 0.916675ZM19.2498 8.91917L17.5723 12.705C17.4086 12.6159 17.2675 12.4905 17.1598 12.3383C17.052 12.1856 16.9838 12.0085 16.9613 11.8229C16.9389 11.6373 16.9631 11.449 17.0315 11.275L17.3798 10.3583C17.4715 10.1206 17.5027 9.86384 17.4707 9.61107C17.4387 9.3583 17.3445 9.11742 17.1965 8.91001C17.0508 8.7034 16.857 8.53535 16.6318 8.42036C16.4066 8.30538 16.1568 8.24691 15.904 8.25001H12.8882C12.8273 8.25018 12.7671 8.23716 12.7117 8.21184C12.6563 8.18652 12.6071 8.14951 12.5673 8.10334C12.4962 8.00559 12.4665 7.88369 12.4848 7.76418L13.3282 3.18084C13.3242 3.12403 13.3323 3.06703 13.352 3.01358C13.3717 2.96014 13.4024 2.91146 13.4423 2.87076C13.4821 2.83006 13.5301 2.79826 13.5831 2.77745C13.6361 2.75663 13.693 2.74728 13.7498 2.75001H19.2498V8.91917ZM9.1115 11.9625H6.46234L6.6915 11.3575C6.85824 10.9063 6.9136 10.4215 6.85285 9.94431C6.79211 9.46713 6.61707 9.01166 6.3426 8.61661C6.06814 8.22156 5.70236 7.89861 5.27636 7.67519C4.85035 7.45178 4.3767 7.33451 3.89567 7.33334C3.71778 7.33194 3.54333 7.38232 3.39358 7.47836C3.24384 7.57439 3.12527 7.71192 3.05234 7.87418L0.999004 12.5125C0.946475 12.6277 0.918384 12.7526 0.916504 12.8792V20.2125C0.916504 20.4556 1.01308 20.6888 1.18499 20.8607C1.3569 21.0326 1.59006 21.1292 1.83317 21.1292H8.24984C8.77465 21.1313 9.2835 20.9489 9.68736 20.6137C10.0912 20.2786 10.3644 19.8121 10.459 19.2958L11.3023 14.7125C11.3606 14.39 11.3473 14.0586 11.2634 13.7418C11.1794 13.425 11.0269 13.1305 10.8165 12.8792C10.6177 12.6099 10.3617 12.3879 10.0669 12.2294C9.77209 12.0709 9.44579 11.9798 9.1115 11.9625ZM8.6715 18.9108C8.65576 19.0096 8.60391 19.099 8.52599 19.1616C8.44808 19.2243 8.34966 19.2558 8.24984 19.25H2.74984V13.0808L4.42734 9.29501C4.59106 9.38409 4.73217 9.50953 4.83984 9.66168C4.94771 9.81438 5.01592 9.99151 5.03832 10.1771C5.06073 10.3627 5.03662 10.551 4.96817 10.725L4.61984 11.6417C4.5282 11.8794 4.49698 12.1362 4.52898 12.3889C4.56097 12.6417 4.65519 12.8826 4.80317 13.09C4.94686 13.3 5.13978 13.4716 5.36509 13.5899C5.59039 13.7081 5.84122 13.7694 6.09567 13.7683H9.1115C9.1724 13.7682 9.23261 13.7812 9.28799 13.8065C9.34338 13.8318 9.39262 13.8688 9.43234 13.915C9.5035 14.0128 9.53315 14.1347 9.51484 14.2542L8.6715 18.9108Z" fill="#002F72"/>
</g>
<defs>
<clipPath id="clip0_195_983">
<rect width="22" height="22" fill="white"/>
</clipPath>
</defs>
</svg>
