<svg width="22" height="22" viewBox="0 0 22 22" fill="none" xmlns="http://www.w3.org/2000/svg">
<path d="M11.0091 12.8333C12.0216 12.8333 12.8424 12.0125 12.8424 11C12.8424 9.98748 12.0216 9.16667 11.0091 9.16667C9.99659 9.16667 9.17578 9.98748 9.17578 11C9.17578 12.0125 9.99659 12.8333 11.0091 12.8333Z" fill="#002F72"/>
<path d="M10.0926 20.1667H11.9259L12.3843 13.75H9.63428L10.0926 20.1667Z" fill="#002F72"/>
<path d="M11 1.83333C8.77426 1.84642 6.62935 2.66886 4.96547 4.14719C3.30159 5.62551 2.23241 7.65871 1.95745 9.8674C1.68248 12.0761 2.22052 14.3094 3.47115 16.1505C4.72178 17.9917 6.59957 19.3149 8.75413 19.8733L8.61663 17.93C6.97614 17.365 5.58912 16.2367 4.70206 14.7455C3.81501 13.2544 3.48541 11.497 3.77182 9.78577C4.05824 8.07452 4.94213 6.52026 6.26639 5.39923C7.59065 4.27819 9.2695 3.663 11.0045 3.663C12.7396 3.663 14.4184 4.27819 15.7427 5.39923C17.067 6.52026 17.9509 8.07452 18.2373 9.78577C18.5237 11.497 18.1941 13.2544 17.307 14.7455C16.42 16.2367 15.033 17.365 13.3925 17.93L13.255 19.8733C15.4102 19.3147 17.2885 17.9907 18.5391 16.1486C19.7897 14.3065 20.3271 12.0722 20.0509 9.8629C19.7747 7.65359 18.7039 5.62032 17.0384 4.14273C15.3728 2.66514 13.2264 1.84425 11 1.83333Z" fill="#002F72"/>
<path d="M14.0435 8.80917C14.1797 9.00352 14.2935 9.21262 14.3827 9.4325C14.4763 9.65385 14.547 9.88422 14.5935 10.12C14.6486 10.3606 14.6763 10.6066 14.676 10.8533C14.6763 11.1031 14.6486 11.3522 14.5935 11.5958C14.547 11.8316 14.4763 12.062 14.3827 12.2833C14.2935 12.5032 14.1797 12.7123 14.0435 12.9067C13.9444 13.0443 13.8373 13.1759 13.7227 13.3008L13.5485 15.7025C13.7314 15.6188 13.909 15.5239 14.0802 15.4183C14.6747 15.0278 15.1857 14.523 15.5835 13.9333C15.7825 13.6458 15.9515 13.3387 16.0877 13.0167C16.2291 12.683 16.3366 12.336 16.4085 11.9808C16.4774 11.6091 16.5081 11.2313 16.5002 10.8533C16.4968 10.4806 16.4569 10.1091 16.381 9.74417C16.2428 9.04539 15.9721 8.37952 15.5835 7.7825C15.3859 7.49068 15.1619 7.21759 14.9144 6.96667C14.6658 6.71651 14.3925 6.4923 14.0985 6.2975C13.8092 6.09889 13.5024 5.92707 13.1819 5.78417C12.8345 5.65452 12.4753 5.55934 12.1094 5.5C11.3803 5.35333 10.6293 5.35333 9.90019 5.5C9.54405 5.57241 9.19676 5.68306 8.86436 5.83C8.54235 5.96623 8.23518 6.13517 7.94769 6.33417C7.65375 6.52897 7.3804 6.75318 7.13186 7.00333C6.87016 7.24061 6.63082 7.50142 6.41686 7.7825C6.01862 8.37744 5.73853 9.04343 5.59186 9.74417C5.52515 10.11 5.49444 10.4815 5.50019 10.8533C5.49958 11.2258 5.53643 11.5974 5.61019 11.9625C5.6821 12.3177 5.78959 12.6647 5.93102 12.9983C6.06725 13.3203 6.23619 13.6275 6.43519 13.915C6.8343 14.4974 7.33779 15.0009 7.92019 15.4C8.0914 15.5056 8.26896 15.6005 8.45186 15.6842L8.25019 13.3008C8.13558 13.1759 8.02845 13.0443 7.92936 12.9067C7.79321 12.7123 7.67943 12.5032 7.59019 12.2833C7.49657 12.062 7.42592 11.8316 7.37936 11.5958C7.33653 11.3508 7.32116 11.1018 7.33353 10.8533C7.3302 10.6069 7.3548 10.3609 7.40686 10.12C7.45342 9.88422 7.52407 9.65385 7.61769 9.4325C7.70693 9.21262 7.82071 9.00352 7.95686 8.80917C8.09084 8.60813 8.24437 8.42084 8.41519 8.25C8.58058 8.08593 8.76174 7.93855 8.95603 7.81C9.15038 7.67385 9.35948 7.56008 9.57936 7.47083C9.80043 7.37426 10.0308 7.30054 10.2669 7.25083C10.7545 7.15922 11.255 7.15922 11.7427 7.25083C11.9788 7.30054 12.2091 7.37426 12.4302 7.47083C12.8698 7.64374 13.2669 7.90952 13.5944 8.25C13.7646 8.41896 13.9152 8.60653 14.0435 8.80917Z" fill="#002F72"/>
</svg>
