<svg width="40" height="30" viewBox="0 0 40 30" fill="none" xmlns="http://www.w3.org/2000/svg">
<path d="M8.68683 0.586427C8.87273 0.772127 9.02022 0.992648 9.12084 1.23538C9.22146 1.47812 9.27326 1.73831 9.27326 2.00107C9.27326 2.26384 9.22146 2.52403 9.12084 2.76676C9.02022 3.0095 8.87273 3.23002 8.68683 3.41572C5.68645 6.4166 4.0009 10.4864 4.0009 14.7299C4.0009 18.9734 5.68645 23.0432 8.68683 26.0441C8.87247 26.2298 9.01971 26.4504 9.12012 26.693C9.22054 26.9357 9.27218 27.1958 9.27209 27.4584C9.27199 27.721 9.22017 27.9811 9.11958 28.2237C9.01899 28.4663 8.8716 28.6867 8.68583 28.8724C8.50006 29.058 8.27954 29.2052 8.03686 29.3057C7.79418 29.4061 7.53411 29.4577 7.27148 29.4576C7.00884 29.4575 6.7488 29.4057 6.5062 29.3051C6.26359 29.2045 6.04318 29.0571 5.85754 28.8714C-1.95251 21.0613 -1.95251 8.39647 5.85754 0.586427C6.04324 0.400521 6.26376 0.253039 6.50649 0.152415C6.74923 0.0517919 7.00942 0 7.27218 0C7.53495 0 7.79514 0.0517919 8.03787 0.152415C8.28061 0.253039 8.50113 0.400521 8.68683 0.586427ZM34.1425 0.586427C41.9525 8.39847 41.9525 21.0613 34.1425 28.8714C33.7654 29.2356 33.2603 29.4371 32.736 29.4326C32.2118 29.428 31.7103 29.2177 31.3395 28.847C30.9688 28.4763 30.7585 27.9748 30.754 27.4505C30.7494 26.9263 30.9509 26.4212 31.3152 26.0441C34.3155 23.0432 36.0011 18.9734 36.0011 14.7299C36.0011 10.4864 34.3155 6.4166 31.3152 3.41572C30.94 3.0408 30.7291 2.53219 30.7289 2.00178C30.7287 1.47137 30.9393 0.962614 31.3142 0.587426C31.6891 0.212239 32.1977 0.00135545 32.7281 0.00116796C33.2585 0.00098047 33.7673 0.211505 34.1425 0.586427ZM14.6193 6.33299C14.9942 6.70795 15.2048 7.21644 15.2048 7.74664C15.2048 8.27683 14.9942 8.78532 14.6193 9.16028C13.8914 9.88812 13.314 10.7522 12.9201 11.7032C12.5261 12.6542 12.3234 13.6735 12.3234 14.7029C12.3234 15.7323 12.5261 16.7516 12.9201 17.7026C13.314 18.6536 13.8914 19.5177 14.6193 20.2455C14.8103 20.43 14.9626 20.6506 15.0674 20.8945C15.1722 21.1385 15.2274 21.4009 15.2297 21.6664C15.232 21.9318 15.1814 22.1951 15.0809 22.4409C14.9803 22.6866 14.8319 22.9099 14.6441 23.0976C14.4564 23.2853 14.2331 23.4338 13.9874 23.5343C13.7417 23.6349 13.4784 23.6855 13.2129 23.6832C12.9474 23.6808 12.685 23.6257 12.4411 23.5209C12.1971 23.4161 11.9765 23.2638 11.7921 23.0728C9.57226 20.8529 8.32521 17.8422 8.32521 14.7029C8.32521 11.5636 9.57226 8.55285 11.7921 6.33299C12.167 5.95814 12.6755 5.74756 13.2057 5.74756C13.7359 5.74756 14.2444 5.95814 14.6193 6.33299ZM28.5339 6.33299C30.7537 8.55285 32.0007 11.5636 32.0007 14.7029C32.0007 17.8422 30.7537 20.8529 28.5339 23.0728C28.3482 23.2586 28.1278 23.406 27.8852 23.5066C27.6426 23.6071 27.3826 23.659 27.1199 23.6591C26.8573 23.6592 26.5972 23.6075 26.3545 23.5071C26.1119 23.4067 25.8913 23.2594 25.7056 23.0738C25.5198 22.8882 25.3724 22.6677 25.2718 22.4251C25.1712 22.1825 25.1194 21.9225 25.1193 21.6599C25.1192 21.3972 25.1709 21.1372 25.2713 20.8945C25.3717 20.6518 25.5189 20.4313 25.7046 20.2455C26.4325 19.5177 27.0099 18.6536 27.4039 17.7026C27.7978 16.7516 28.0006 15.7323 28.0006 14.7029C28.0006 13.6735 27.7978 12.6542 27.4039 11.7032C27.0099 10.7522 26.4325 9.88812 25.7046 9.16028C25.3297 8.7851 25.1191 8.27634 25.1193 7.74593C25.1195 7.21552 25.3304 6.70691 25.7056 6.33199C26.0808 5.95707 26.5895 5.74654 27.1199 5.74673C27.6503 5.74692 28.1589 5.9578 28.5339 6.33299ZM20.162 11.8716C20.5558 11.8716 20.9458 11.9492 21.3097 12.0999C21.6736 12.2506 22.0042 12.4716 22.2828 12.7501C22.5613 13.0286 22.7822 13.3592 22.9329 13.7231C23.0836 14.087 23.1612 14.477 23.1612 14.8709C23.1612 15.2647 23.0836 15.6547 22.9329 16.0186C22.7822 16.3825 22.5613 16.7131 22.2828 16.9916C22.0042 17.2702 21.6736 17.4911 21.3097 17.6418C20.9458 17.7925 20.5558 17.8701 20.162 17.8701C19.3665 17.8701 18.6036 17.5541 18.0412 16.9916C17.4787 16.4292 17.1627 15.6663 17.1627 14.8709C17.1627 14.0754 17.4787 13.3125 18.0412 12.7501C18.6036 12.1876 19.3665 11.8716 20.162 11.8716Z" fill="#002F72"/>
</svg>
