<svg width="68" height="68" viewBox="0 0 68 68" fill="none" xmlns="http://www.w3.org/2000/svg">
<path d="M17.9715 13.991C18.235 14.2541 18.4439 14.5666 18.5865 14.9106C18.7291 15.2545 18.8025 15.6232 18.8025 15.9956C18.8025 16.3679 18.7291 16.7366 18.5865 17.0806C18.4439 17.4245 18.235 17.737 17.9715 18.0002C13.7199 22.2525 11.3315 28.0194 11.3315 34.0326C11.3315 40.0457 13.7199 45.8127 17.9715 50.065C18.2346 50.3282 18.4432 50.6407 18.5855 50.9846C18.7278 51.3285 18.801 51.697 18.8009 52.0692C18.8007 52.4413 18.7273 52.8098 18.5847 53.1536C18.4422 53.4974 18.2334 53.8097 17.9701 54.0727C17.7069 54.3358 17.3944 54.5444 17.0505 54.6867C16.7066 54.829 16.3381 54.9022 15.9659 54.9021C15.5938 54.9019 15.2253 54.8285 14.8815 54.686C14.5378 54.5434 14.2254 54.3346 13.9624 54.0713C2.89536 43.0043 2.89536 25.058 13.9624 13.991C14.2255 13.7276 14.538 13.5186 14.8819 13.376C15.2259 13.2334 15.5946 13.16 15.9669 13.16C16.3393 13.16 16.708 13.2334 17.0519 13.376C17.3959 13.5186 17.7084 13.7276 17.9715 13.991ZM54.0427 13.991C65.1097 25.0608 65.1097 43.0043 54.0427 54.0713C53.5083 54.5874 52.7926 54.873 52.0497 54.8666C51.3068 54.8601 50.5962 54.5621 50.0709 54.0368C49.5456 53.5115 49.2476 52.8009 49.2411 52.058C49.2347 51.3151 49.5202 50.5994 50.0364 50.065C54.288 45.8127 56.6764 40.0457 56.6764 34.0326C56.6764 28.0194 54.288 22.2525 50.0364 18.0002C49.5047 17.4689 49.2059 16.7482 49.2056 15.9966C49.2054 15.245 49.5037 14.5241 50.0349 13.9924C50.5662 13.4608 51.2869 13.1619 52.0385 13.1617C52.7901 13.1614 53.511 13.4597 54.0427 13.991ZM26.378 22.134C26.9092 22.6653 27.2076 23.3859 27.2076 24.1372C27.2076 24.8885 26.9092 25.609 26.378 26.1403C25.3466 27.1717 24.5283 28.3961 23.9701 29.7437C23.4119 31.0913 23.1246 32.5357 23.1246 33.9943C23.1246 35.453 23.4119 36.8973 23.9701 38.2449C24.5283 39.5925 25.3466 40.817 26.378 41.8483C26.6486 42.1097 26.8645 42.4223 27.013 42.768C27.1615 43.1137 27.2396 43.4855 27.2429 43.8617C27.2462 44.2379 27.1745 44.611 27.032 44.9592C26.8896 45.3074 26.6792 45.6238 26.4131 45.8898C26.1471 46.1558 25.8308 46.3662 25.4826 46.5087C25.1344 46.6511 24.7613 46.7228 24.3851 46.7195C24.0088 46.7163 23.6371 46.6381 23.2914 46.4896C22.9457 46.3411 22.6331 46.1253 22.3717 45.8547C19.2262 42.7091 17.4591 38.4428 17.4591 33.9943C17.4591 29.5459 19.2262 25.2796 22.3717 22.134C22.903 21.6028 23.6236 21.3044 24.3749 21.3044C25.1262 21.3044 25.8467 21.6028 26.378 22.134ZM46.0952 22.134C49.2407 25.2796 51.0078 29.5459 51.0078 33.9943C51.0078 38.4428 49.2407 42.7091 46.0952 45.8547C45.8321 46.1179 45.5198 46.3268 45.176 46.4693C44.8322 46.6118 44.4638 46.6853 44.0916 46.6854C43.7195 46.6855 43.3509 46.6124 43.007 46.4701C42.6632 46.3278 42.3507 46.1191 42.0874 45.8561C41.8242 45.593 41.6153 45.2807 41.4728 44.9369C41.3303 44.5931 41.2568 44.2247 41.2567 43.8525C41.2566 43.4803 41.3297 43.1118 41.472 42.7679C41.6143 42.4241 41.823 42.1116 42.086 41.8483C43.1175 40.817 43.9357 39.5925 44.4939 38.2449C45.0522 36.8973 45.3395 35.453 45.3395 33.9943C45.3395 32.5357 45.0522 31.0913 44.4939 29.7437C43.9357 28.3961 43.1175 27.1717 42.086 26.1403C41.5548 25.6087 41.2564 24.8878 41.2567 24.1362C41.257 23.3846 41.5558 22.6639 42.0874 22.1326C42.6191 21.6013 43.34 21.303 44.0916 21.3033C44.8432 21.3035 45.5639 21.6023 46.0952 22.134ZM34.232 29.9823C34.7901 29.9823 35.3428 30.0923 35.8584 30.3058C36.3741 30.5194 36.8426 30.8325 37.2372 31.2271C37.6319 31.6218 37.9449 32.0903 38.1585 32.6059C38.3721 33.1216 38.482 33.6742 38.482 34.2323C38.482 34.7904 38.3721 35.3431 38.1585 35.8587C37.9449 36.3744 37.6319 36.8429 37.2372 37.2375C36.8426 37.6322 36.3741 37.9452 35.8584 38.1588C35.3428 38.3724 34.7901 38.4823 34.232 38.4823C33.1049 38.4823 32.0239 38.0346 31.2268 37.2375C30.4298 36.4405 29.982 35.3595 29.982 34.2323C29.982 33.1052 30.4298 32.0242 31.2268 31.2271C32.0239 30.4301 33.1049 29.9823 34.232 29.9823Z" fill="#002F72"/>
</svg>
