<svg width="40" height="41" viewBox="0 0 40 41" fill="none" xmlns="http://www.w3.org/2000/svg">
<path d="M20.0109 24.1303C22.2321 24.1303 24.0326 22.3297 24.0326 20.1086C24.0326 17.8875 22.2321 16.0869 20.0109 16.0869C17.7898 16.0869 15.9893 17.8875 15.9893 20.1086C15.9893 22.3297 17.7898 24.1303 20.0109 24.1303Z" fill="#002F72"/>
<path d="M17.9996 40.217H22.0212L23.0267 26.1411H16.9941L17.9996 40.217Z" fill="#002F72"/>
<path d="M19.9902 0C15.1077 0.0287257 10.4026 1.83287 6.75261 5.07578C3.10265 8.31869 0.757256 12.7788 0.154082 17.6239C-0.449092 22.469 0.73116 27.368 3.4746 31.4069C6.21805 35.4457 10.3373 38.3484 15.0636 39.5733L14.762 35.3104C11.1633 34.071 8.12067 31.5958 6.1748 28.3248C4.22892 25.0537 3.50588 21.1987 4.13418 17.4448C4.76247 13.691 6.70141 10.2815 9.60637 7.82231C12.5113 5.36316 16.1941 4.01365 20.0002 4.01365C23.8063 4.01365 27.4891 5.36316 30.394 7.82231C33.299 10.2815 35.2379 13.691 35.8662 17.4448C36.4945 21.1987 35.7715 25.0537 33.8256 28.3248C31.8797 31.5958 28.8371 34.071 25.2384 35.3104L24.9368 39.5733C29.6647 38.3479 33.785 35.4436 36.5283 31.4026C39.2717 27.3617 40.4505 22.4605 39.8447 17.614C39.2389 12.7676 36.8899 8.30731 33.2363 5.06601C29.5827 1.8247 24.8742 0.0239509 19.9902 0Z" fill="#002F72"/>
<path d="M26.6664 15.3027C26.965 15.729 27.2146 16.1877 27.4104 16.6701C27.6157 17.1556 27.7707 17.661 27.8729 18.1782C27.9936 18.7059 28.0544 19.2455 28.0538 19.7869C28.0543 20.3348 27.9936 20.8811 27.8729 21.4156C27.7707 21.9329 27.6157 22.4382 27.4104 22.9238C27.2146 23.4061 26.965 23.8648 26.6664 24.2911C26.449 24.593 26.214 24.8817 25.9626 25.1558L25.5805 30.4242C25.9817 30.2406 26.3712 30.0324 26.7468 29.8008C28.0509 28.9441 29.1718 27.8368 30.0446 26.5433C30.4811 25.9126 30.8517 25.2388 31.1505 24.5324C31.4608 23.8006 31.6966 23.0393 31.8543 22.2602C32.0053 21.4447 32.0727 20.616 32.0554 19.7869C32.048 18.9692 31.9605 18.1543 31.794 17.3537C31.4907 15.8209 30.8969 14.3602 30.0446 13.0505C29.611 12.4104 29.1196 11.8113 28.5767 11.2609C28.0314 10.7121 27.4318 10.2203 26.787 9.79298C26.1523 9.35731 25.4793 8.98039 24.7762 8.66691C24.0143 8.38252 23.2262 8.17373 22.4235 8.04355C20.8241 7.72181 19.1767 7.72181 17.5774 8.04355C16.7961 8.2024 16.0343 8.44511 15.3051 8.76745C14.5987 9.06629 13.9249 9.43688 13.2943 9.87342C12.6495 10.3007 12.0498 10.7926 11.5046 11.3413C10.9305 11.8618 10.4055 12.434 9.93616 13.0505C9.06256 14.3556 8.44814 15.8166 8.1264 17.3537C7.98006 18.1563 7.91271 18.9712 7.92532 19.7869C7.92398 20.6039 8.00482 21.4191 8.16662 22.22C8.32437 22.9991 8.56016 23.7604 8.87041 24.4922C9.16925 25.1986 9.53985 25.8724 9.97638 26.5031C10.8519 27.7807 11.9563 28.8851 13.2339 29.7606C13.6095 29.9922 13.999 30.2004 14.4002 30.384L13.9578 25.1558C13.7064 24.8817 13.4714 24.593 13.254 24.2911C12.9554 23.8648 12.7058 23.4061 12.51 22.9238C12.3047 22.4382 12.1497 21.9329 12.0475 21.4156C11.9536 20.8781 11.9199 20.3318 11.947 19.7869C11.9397 19.2463 11.9937 18.7066 12.1079 18.1782C12.21 17.661 12.365 17.1556 12.5704 16.6701C12.7661 16.1877 13.0157 15.729 13.3144 15.3027C13.6083 14.8617 13.9451 14.4508 14.3198 14.0761C14.6826 13.7162 15.08 13.3929 15.5062 13.1109C15.9325 12.8122 16.3912 12.5626 16.8736 12.3669C17.3585 12.155 17.8638 11.9933 18.3817 11.8843C19.4515 11.6833 20.5494 11.6833 21.6191 11.8843C22.137 11.9933 22.6423 12.155 23.1273 12.3669C24.0916 12.7461 24.9627 13.3292 25.681 14.0761C26.0544 14.4467 26.3849 14.8582 26.6664 15.3027Z" fill="#002F72"/>
</svg>
