<svg width="22" height="22" viewBox="0 0 22 22" fill="none" xmlns="http://www.w3.org/2000/svg">
<path d="M18.5944 11V21H3.63375V11M11.1141 21V6M11.1141 6H6.90639C6.28642 6 5.69184 5.73661 5.25346 5.26777C4.81507 4.79893 4.56879 4.16304 4.56879 3.5C4.56879 2.83696 4.81507 2.20107 5.25346 1.73223C5.69184 1.26339 6.28642 1 6.90639 1C10.179 1 11.1141 6 11.1141 6ZM11.1141 6H15.3217C15.9417 6 16.5363 5.73661 16.9747 5.26777C17.4131 4.79893 17.6593 4.16304 17.6593 3.5C17.6593 2.83696 17.4131 2.20107 16.9747 1.73223C16.5363 1.26339 15.9417 1 15.3217 1C12.0491 1 11.1141 6 11.1141 6ZM1.76367 6H20.4645V11H1.76367V6Z" stroke="currentColor" stroke-width="2" stroke-linecap="round" stroke-linejoin="round"/>
</svg>
