<svg width="5" height="18" viewBox="0 0 5 18" fill="none" xmlns="http://www.w3.org/2000/svg">
<path d="M2.62195 9.99996C3.16553 9.99996 3.6062 9.55225 3.6062 8.99996C3.6062 8.44768 3.16553 7.99996 2.62195 7.99996C2.07836 7.99996 1.6377 8.44768 1.6377 8.99996C1.6377 9.55225 2.07836 9.99996 2.62195 9.99996Z" stroke="currentColor" stroke-width="2" stroke-linecap="round" stroke-linejoin="round"/>
<path d="M2.62195 3C3.16553 3 3.6062 2.55229 3.6062 2C3.6062 1.44772 3.16553 1 2.62195 1C2.07836 1 1.6377 1.44772 1.6377 2C1.6377 2.55229 2.07836 3 2.62195 3Z" stroke="currentColor" stroke-width="2" stroke-linecap="round" stroke-linejoin="round"/>
<path d="M2.62195 17C3.16553 17 3.6062 16.5523 3.6062 16C3.6062 15.4477 3.16553 15 2.62195 15C2.07836 15 1.6377 15.4477 1.6377 16C1.6377 16.5523 2.07836 17 2.62195 17Z" stroke="currentColor" stroke-width="2" stroke-linecap="round" stroke-linejoin="round"/>
</svg>
