<svg width="47" height="47" viewBox="0 0 47 47" fill="none" xmlns="http://www.w3.org/2000/svg">
<g clip-path="url(#clip0_174_100)">
<path d="M38.3863 16.3467H38.3866L37.4452 13.593H13.3924H11.5566L12.5567 23.0321L11.5566 33.4222C11.5566 34.1771 12.1685 34.7889 12.9234 34.7889H12.9236H14.7592H19.679H30.2642H37.0196H37.0198H37.0206C37.0465 34.7889 37.0704 34.7876 37.0931 34.7853C37.8136 34.7469 38.3865 34.1523 38.3865 33.4222V26.1158C38.3864 26.1158 38.3863 26.1158 38.3862 26.1158V16.3467H38.3863Z" fill="#B3E59F"/>
<path d="M37.8404 7.62093V4.78465C37.8404 4.48946 37.8162 4.19371 37.7516 3.90568C37.3925 2.30488 36.0807 1.05664 34.4162 0.810922C34.1072 0.765303 33.7982 0.740612 33.4912 0.73593C31.2084 0.701693 29.2367 2.19051 27.8819 4.06493L27.6748 7.95376L37.8404 7.62093Z" fill="#DF646E"/>
<path d="M12.3902 7.76389L12.3242 4.49464C12.4497 2.60599 15.5716 0.920746 15.5716 0.920746C16.0225 0.854199 16.4245 0.722299 16.8693 0.742309C18.3986 0.810967 19.8604 1.37685 21.0336 2.34302C21.4924 2.72082 21.9071 3.15985 22.2644 3.65422L21.7878 8.174L12.3902 7.76389Z" fill="#DF646E"/>
<path d="M22.3567 3.76807L21.7884 8.17367L19.6772 8.0571V5.45947C19.6772 4.23041 20.1995 3.1216 21.0339 2.34323C21.4928 2.72058 21.9997 3.27333 22.3567 3.76807Z" fill="#DC4955"/>
<path d="M34.3039 0.795841C33.9964 0.754536 33.6889 0.73526 33.3842 0.73526C31.7413 0.73526 30.159 1.31133 28.9059 2.34349C28.442 2.72561 27.9921 3.20714 27.6396 3.69408L27.675 7.95364L30.2625 7.87103V5.45964C30.2625 4.76737 30.0963 4.11355 29.8023 3.5351C29.7533 3.43863 29.7664 3.32114 29.8362 3.23844C30.9768 1.88574 32.5767 1.02219 34.3039 0.795841Z" fill="#DC4955"/>
<path d="M28.4265 7.62657V5.4598C28.4265 4.11831 27.339 3.03079 25.9974 3.03079H23.9417C22.6002 3.03079 21.5127 4.11831 21.5127 5.4598V7.62657H28.4265Z" fill="#DF646E"/>
<path d="M29.0417 6.06638V7.62679L24.8703 8.17385L20.8979 7.62679V6.06638H29.0417Z" fill="#DC4955"/>
<path d="M37.8401 7.62128L27.6748 7.95356V7.62679H28.4266V6.06638H37.8401V7.62128Z" fill="#DC4955"/>
<path d="M30.2606 6.06638V7.87095L28.4248 7.62679V6.06638H30.2606Z" fill="#D82F3C"/>
<path d="M21.5129 7.62678V6.06636H14.4209C14.1024 6.06636 13.8503 5.79705 13.8714 5.47928L13.9348 4.52155C14.0605 2.63254 15.4869 1.08773 17.3594 0.811445C17.3971 0.805938 17.4338 0.80043 17.4714 0.795841C17.1694 0.755454 16.8638 0.73526 16.5554 0.73526C16.2139 0.73526 15.8688 0.760043 15.5236 0.811445C13.8072 1.06469 12.4656 2.38388 12.157 4.05701C12.1145 4.28722 12.099 4.52165 12.0971 4.75571L12.0742 7.62678L21.7881 8.17384L21.846 7.62678H21.5129Z" fill="#DC4955"/>
<path d="M19.6772 8.05728V6.06638H21.513V7.62679L19.6772 8.05728Z" fill="#D82F3C"/>
<path d="M39.0864 7.62646C39.8412 7.62646 40.453 8.23833 40.453 8.99311V13.1445C40.453 13.8993 39.2299 14.2129 38.4752 14.2129L11.1025 14.2763C10.3477 14.2763 9.73584 13.6644 9.73584 12.9097L9.9151 9.17394C9.9151 8.41916 10.0998 7.62646 10.8546 7.62646H19.6779L24.4372 8.70131L30.2629 7.62646H39.0864Z" fill="#CCF49F"/>
<path d="M13.3924 31.993V16.6221C13.3924 16.47 13.5157 16.3467 13.6678 16.3467H38.3866V13.593H13.3924H11.5566V16.3467V26.0479V33.4222L13.3924 31.993Z" fill="#95D6A4"/>
<path d="M30.2614 12.308V7.62677H28.4258L24.6115 8.63103L21.5119 7.62677H19.6763V12.308C19.6763 12.5108 19.5119 12.6752 19.3091 12.6752H11.6888C11.486 12.6752 11.3216 12.5108 11.3216 12.308V7.62677H10.8526C10.0981 7.62677 9.48584 8.23809 9.48584 8.99351V13.1442C9.48584 13.8996 10.0981 14.5109 10.8526 14.5109H19.6763H30.2614H39.085C39.8395 14.5109 40.4518 13.8996 40.4518 13.1442V12.6752H30.6285C30.4258 12.6752 30.2614 12.5108 30.2614 12.308Z" fill="#B3E59F"/>
<path d="M21.5127 7.62677V14.5109L22.913 27.0006L22.3564 34.789H27.5063L27.0064 29.6566L28.4262 14.5109V7.62677H21.5127Z" fill="#DF646E"/>
<path d="M28.4263 31.0569L21.5127 28.5807V14.511H28.4263V31.0569Z" fill="#DC4955"/>
<path d="M28.4262 31.0091V34.789H21.5127V27.3247C23.7661 28.451 27.6974 30.6025 28.0224 30.7806C28.1582 30.8531 28.2913 30.9302 28.4198 31.0128L28.4262 31.0091Z" fill="#DC4955"/>
<path d="M28.1249 33.876L29.7578 32.3736L37.1134 28.3764C38.5466 27.5987 40.2661 27.8727 41.3907 28.9353C41.6697 29.1989 40.9095 30.3753 40.9095 30.3753L42.4338 30.5021L27.5044 39.2808L28.1249 33.876Z" fill="#F2D1A5"/>
<path d="M42.434 30.5024L42.1044 29.8682C41.9117 29.5111 41.6694 29.199 41.3903 28.9356C40.9993 29.0457 40.6184 29.199 40.2577 29.3945L31.0763 34.4233C30.9208 34.5085 30.7237 34.428 30.6778 34.2567C30.4967 33.5798 30.186 32.9387 29.7578 32.374L28.2002 33.2203L27.8598 36.185L27.8596 36.1851L27.5044 39.2811L30.5444 37.494C30.5445 37.4938 30.5445 37.4936 30.5446 37.4934L42.434 30.5024Z" fill="#F2BB88"/>
<path d="M46.0879 32.4159C45.1201 30.6215 42.8855 29.9538 41.0968 30.9245L27.9113 38.1464L27.959 37.3278C28.272 36.7285 29.1491 36.1144 29.1192 35.4844C29.0592 34.2228 28.3511 33.0255 27.1528 32.3979C27.1528 32.3979 21.2882 29.1823 19.6734 28.4801C18.2811 27.8746 16.3873 27.6754 13.8299 27.6754C11.7884 27.6754 10.087 28.251 8.86019 28.9311C7.99848 29.4089 7.80747 30.7544 7.46087 31.1721L7.02441 41.7097L16.3742 44.9209C19.9074 46.3189 23.744 46.2878 27.0843 44.4757L45.0357 34.789C45.9199 34.3092 46.5641 33.3386 46.1041 32.4467C46.0988 32.4364 46.0934 32.4262 46.0879 32.4159Z" fill="#F2D1A5"/>
<path d="M46.1053 32.4465C40.8384 35.3011 26.3403 43.1408 26.3403 43.1408C24.7349 44.0119 22.9203 44.4727 21.0946 44.4727C21.0946 44.4727 21.0946 44.4727 21.0937 44.4727C19.7031 44.4727 18.3418 44.2129 17.0476 43.7007L9.25694 40.4629C9.01719 40.3633 8.86096 40.1291 8.86096 39.8695V28.9309C7.99906 29.4092 7.37215 29.9379 7.02518 30.3555L4.16504 36.4159L7.02518 41.7098L16.3721 45.408C19.905 46.8059 23.8749 46.5673 27.2151 44.7544L45.3452 34.9193C46.2301 34.4392 46.5651 33.3377 46.1053 32.4465Z" fill="#F2BB88"/>
<path d="M1.85353 44.714L5.40402 44.828C5.91097 44.828 6.32191 44.417 6.32191 43.9101L7.02593 43.2125V28.5932C7.02593 28.0863 6.61499 27.6754 6.10804 27.6754H2.52827L1.92769 28.1299C1.42074 28.1299 1.0098 28.5408 1.0098 29.0478L0.935547 43.7961C0.935639 44.3029 1.34658 44.714 1.85353 44.714Z" fill="#5F6C75"/>
<path d="M7.02485 43.2125V44.1304C7.02485 44.6373 6.61391 45.0483 6.10696 45.0483H1.6093C1.10235 45.0483 0.691406 44.6373 0.691406 44.1304V28.5932C0.691406 28.0863 1.10235 27.6754 1.6093 27.6754H2.52719V42.4782C2.52719 42.8837 2.85597 43.2125 3.2615 43.2125H7.02485Z" fill="#4E5A61"/>
<path d="M28.9183 36.8725C28.8605 37.0378 28.7908 37.2002 28.7072 37.3599C28.3795 37.9878 27.7407 38.3467 27.0789 38.3467C26.7916 38.3467 26.5006 38.2788 26.2289 38.1365L18.2592 33.9617C17.6442 33.6396 17.4372 32.8597 17.8116 32.275C18.1426 31.7582 18.8137 31.5801 19.3575 31.8648L27.458 36.1079C28.2712 36.5347 29.2212 35.8343 29.0533 34.9366C29.1799 35.5682 29.1423 36.2364 28.9183 36.8725Z" fill="#F2BB88"/>
</g>
<defs>
<clipPath id="clip0_174_100">
<rect width="47" height="47" fill="white"/>
</clipPath>
</defs>
</svg>
