<svg width="351" height="350" viewBox="0 0 351 350" fill="none" xmlns="http://www.w3.org/2000/svg">
<path d="M313.959 -2.74472e-05L18.3817 -1.60698e-06C8.45557 -7.39209e-07 7.39211e-07 8.45559 1.63912e-06 18.7493L4.56381e-06 52.2039C5.46372e-06 62.4976 8.45557 70.9532 18.3817 70.9532L313.959 70.9532C324.253 70.9532 332.341 62.4976 332.708 52.2039L332.708 19.1169C332.708 8.45553 324.253 -2.83471e-05 313.959 -2.74472e-05ZM313.959 185.655L18.3817 185.655C13.6024 185.655 8.82322 187.493 5.51452 191.169C1.83818 194.846 1.74196e-05 199.257 1.78696e-05 204.404L2.07943e-05 237.859C2.16942e-05 248.152 8.45559 256.608 18.3817 256.608L313.959 256.608C324.253 256.608 332.341 248.52 332.708 237.859L332.708 204.404C332.341 193.743 324.253 185.655 313.959 185.655ZM184.92 278.298L18.3817 278.298C13.6025 278.298 8.82322 280.137 5.51452 283.813C2.20582 287.489 2.55188e-05 291.901 2.59687e-05 297.048L2.88934e-05 330.502C2.97933e-05 340.796 8.4556 349.252 18.3817 349.252L184.552 349.252C194.846 349.252 202.934 340.796 202.934 330.87L202.934 297.415C203.301 286.386 195.213 277.931 184.92 278.298ZM332.708 92.6436L18.3817 92.6436C13.6024 92.6436 8.82321 94.4817 5.51451 98.1581C2.20581 101.834 9.28832e-06 106.246 9.73828e-06 111.393L1.2663e-05 144.848C1.35629e-05 155.141 8.45558 163.597 18.3817 163.597L332.34 163.597C342.634 163.597 350.722 155.141 350.722 144.848L350.722 111.393C351.09 101.099 342.634 93.0112 332.708 92.6436Z" fill="#00C3F7"/>
</svg>
