<svg width="40" height="40" viewBox="0 0 40 40" fill="none" xmlns="http://www.w3.org/2000/svg">
<g clip-path="url(#clip0_114_209)">
<path d="M32.6692 13.912H32.6694L31.8682 11.5685H11.3978H9.83545L10.6865 19.6018L9.83545 28.4444C9.83545 29.0868 10.3562 29.6076 10.9986 29.6076H10.9988H12.561H16.7481H25.7567H31.5061H31.5062H31.5069C31.529 29.6076 31.5493 29.6064 31.5686 29.6044C32.1818 29.5718 32.6693 29.0657 32.6693 28.4444V22.2262C32.6693 22.2262 32.6692 22.2262 32.6691 22.2262V13.912H32.6692Z" fill="#B3E59F"/>
<path d="M32.2048 6.48586V4.07201C32.2048 3.82078 32.1842 3.56908 32.1292 3.32395C31.8236 1.96156 30.7072 0.899231 29.2906 0.690109C29.0276 0.651284 28.7646 0.63027 28.5033 0.626286C26.5605 0.597148 24.8825 1.86423 23.7295 3.45948L23.5532 6.76912L32.2048 6.48586Z" fill="#DF646E"/>
<path d="M10.5449 6.60756L10.4888 3.82522C10.5956 2.21786 13.2525 0.783606 13.2525 0.783606C13.6362 0.72697 13.9784 0.614714 14.357 0.631744C15.6585 0.690177 16.9025 1.17178 17.901 1.99405C18.2915 2.31558 18.6444 2.68922 18.9485 3.10997L18.5429 6.95659L10.5449 6.60756Z" fill="#DF646E"/>
<path d="M19.027 3.20683L18.5433 6.95628L16.7466 6.85707V4.64632C16.7466 3.60031 17.1911 2.65664 17.9012 1.9942C18.2918 2.31535 18.7231 2.78577 19.027 3.20683Z" fill="#DC4955"/>
<path d="M29.1946 0.67729C28.9329 0.642137 28.6713 0.625732 28.4119 0.625732C27.0137 0.625732 25.6671 1.116 24.6006 1.99444C24.2058 2.31965 23.8229 2.72946 23.5229 3.14388L23.553 6.76903L25.7552 6.69873V4.64648C25.7552 4.05731 25.6137 3.50088 25.3635 3.00857C25.3218 2.92647 25.3329 2.82648 25.3923 2.7561C26.3631 1.60487 27.7247 0.86993 29.1946 0.67729Z" fill="#DC4955"/>
<path d="M24.1927 6.49065V4.64659C24.1927 3.50489 23.2672 2.57935 22.1254 2.57935H20.3758C19.2341 2.57935 18.3086 3.50489 18.3086 4.64659V6.49065H24.1927Z" fill="#DF646E"/>
<path d="M24.7165 5.16284V6.49085L21.1664 6.95644L17.7856 6.49085V5.16284H24.7165Z" fill="#DC4955"/>
<path d="M32.2045 6.48616L23.5532 6.76895V6.49085H24.193V5.16284H32.2045V6.48616Z" fill="#DC4955"/>
<path d="M25.7538 5.16284V6.69865L24.1914 6.49085V5.16284H25.7538Z" fill="#D82F3C"/>
<path d="M18.3088 6.49085V5.16284H12.273C12.002 5.16284 11.7875 4.93364 11.8054 4.6632L11.8593 3.84811C11.9664 2.24044 13.1803 0.925707 14.7739 0.690571C14.806 0.685883 14.8372 0.681196 14.8692 0.67729C14.6122 0.642918 14.3521 0.625732 14.0896 0.625732C13.799 0.625732 13.5053 0.646824 13.2116 0.690571C11.7508 0.906099 10.609 2.02881 10.3463 3.45275C10.3102 3.64868 10.297 3.84819 10.2953 4.04739L10.2759 6.49085L18.5431 6.95644L18.5923 6.49085H18.3088Z" fill="#DC4955"/>
<path d="M16.7466 6.85723V5.16284H18.3089V6.49085L16.7466 6.85723Z" fill="#D82F3C"/>
<path d="M33.2648 6.4906C33.9072 6.4906 34.4279 7.01134 34.4279 7.6537V11.1868C34.4279 11.8292 33.387 12.0961 32.7446 12.0961L9.44875 12.15C8.80638 12.15 8.28564 11.6293 8.28564 10.9869L8.43821 7.8076C8.43821 7.16523 8.59538 6.4906 9.23775 6.4906H16.7469L20.7975 7.40537L25.7555 6.4906H33.2648Z" fill="#CCF49F"/>
<path d="M11.3978 27.2281V14.1464C11.3978 14.0169 11.5027 13.912 11.6322 13.912H32.6694V11.5685H11.3978H9.83545V13.912V22.1684V28.4444L11.3978 27.2281Z" fill="#95D6A4"/>
<path d="M25.7546 10.4749V6.49084H24.1923L20.9461 7.34554L18.3082 6.49084H16.7459V10.4749C16.7459 10.6474 16.606 10.7873 16.4335 10.7873H9.94808C9.77552 10.7873 9.63561 10.6474 9.63561 10.4749V6.49084H9.23642C8.59429 6.49084 8.07324 7.01111 8.07324 7.65403V11.1865C8.07324 11.8294 8.59429 12.3497 9.23642 12.3497H16.7459H25.7545H33.264C33.9062 12.3497 34.4272 11.8294 34.4272 11.1865V10.7873H26.067C25.8945 10.7873 25.7546 10.6474 25.7546 10.4749Z" fill="#B3E59F"/>
<path d="M18.3086 6.49084V12.3497L19.5004 22.9792L19.0267 29.6076H23.4096L22.984 25.2396L24.1925 12.3497V6.49084H18.3086Z" fill="#DF646E"/>
<path d="M24.1925 26.4314L18.3086 24.324V12.3498H24.1925V26.4314Z" fill="#DC4955"/>
<path d="M24.1925 26.3907V29.6076H18.3086V23.2551C20.2264 24.2136 23.5722 26.0447 23.8487 26.1962C23.9644 26.2579 24.0776 26.3236 24.187 26.3939L24.1925 26.3907Z" fill="#DC4955"/>
<path d="M23.9363 28.8306L25.326 27.552L31.5861 24.1501C32.8058 23.4882 34.2692 23.7214 35.2263 24.6258C35.4638 24.8501 34.8168 25.8513 34.8168 25.8513L36.1141 25.9592L23.4082 33.4304L23.9363 28.8306Z" fill="#F2D1A5"/>
<path d="M36.1142 25.9595L35.8338 25.4197C35.6697 25.1158 35.4635 24.8502 35.226 24.626C34.8932 24.7197 34.569 24.8502 34.262 25.0166L26.4481 29.2964C26.3158 29.3689 26.148 29.3003 26.109 29.1546C25.9549 28.5785 25.6904 28.0329 25.326 27.5523L24.0003 28.2725L23.7107 30.7957L23.7105 30.7958L23.4082 33.4307L25.9955 31.9097C25.9956 31.9096 25.9956 31.9094 25.9956 31.9093L36.1142 25.9595Z" fill="#F2BB88"/>
<path d="M39.2235 27.588C38.3999 26.0608 36.4981 25.4926 34.9758 26.3187L23.7541 32.465L23.7947 31.7683C24.0611 31.2583 24.8076 30.7357 24.7821 30.1995C24.731 29.1257 24.1284 28.1068 23.1086 27.5727C23.1086 27.5727 18.1175 24.8359 16.7431 24.2383C15.5582 23.7231 13.9464 23.5535 11.77 23.5535C10.0325 23.5535 8.58444 24.0433 7.54039 24.6222C6.80702 25.0288 6.64445 26.1739 6.34948 26.5295L5.97803 35.4976L13.9353 38.2306C16.9422 39.4203 20.2074 39.3938 23.0502 37.8516L38.3281 29.6076C39.0806 29.1993 39.6288 28.3732 39.2374 27.6142C39.2328 27.6054 39.2282 27.5967 39.2235 27.588Z" fill="#F2D1A5"/>
<path d="M39.2382 27.614C34.7558 30.0435 22.417 36.7156 22.417 36.7156C21.0507 37.4569 19.5063 37.8491 17.9526 37.8491C17.9526 37.8491 17.9526 37.8491 17.9518 37.8491C16.7683 37.8491 15.6098 37.628 14.5083 37.1921L7.87797 34.4365C7.67392 34.3517 7.54096 34.1524 7.54096 33.9315V24.6221C6.80743 25.0291 6.27389 25.479 5.9786 25.8345L3.54443 30.9922L5.9786 35.4977L13.9334 38.6451C16.9402 39.8348 20.3188 39.6317 23.1615 38.0889L38.5914 29.7185C39.3445 29.3099 39.6296 28.3725 39.2382 27.614Z" fill="#F2BB88"/>
<path d="M1.57716 38.0544L4.59885 38.1514C5.0303 38.1514 5.38003 37.8017 5.38003 37.3702L5.9792 36.7765V24.3346C5.9792 23.9032 5.62947 23.5535 5.19802 23.5535H2.15141L1.64028 23.9403C1.20883 23.9403 0.859096 24.29 0.859096 24.7215L0.795898 37.2732C0.795977 37.7046 1.14571 38.0544 1.57716 38.0544Z" fill="#5F6C75"/>
<path d="M5.97854 36.7765V37.5577C5.97854 37.9892 5.62881 38.3389 5.19736 38.3389H1.36956C0.938115 38.3389 0.588379 37.9892 0.588379 37.5577V24.3346C0.588379 23.9032 0.938115 23.5535 1.36956 23.5535H2.15074V36.1516C2.15074 36.4967 2.43056 36.7765 2.77569 36.7765H5.97854Z" fill="#4E5A61"/>
<path d="M24.6113 31.3809C24.5621 31.5215 24.5027 31.6598 24.4316 31.7957C24.1527 32.33 23.609 32.6355 23.0458 32.6355C22.8013 32.6355 22.5536 32.5777 22.3224 32.4566L15.5396 28.9036C15.0162 28.6294 14.8401 27.9657 15.1587 27.4681C15.4404 27.0282 16.0116 26.8767 16.4744 27.119L23.3684 30.7301C24.0605 31.0933 24.8691 30.4973 24.7261 29.7333C24.8339 30.2708 24.8019 30.8395 24.6113 31.3809Z" fill="#F2BB88"/>
</g>
<defs>
<clipPath id="clip0_114_209">
<rect width="40" height="40" fill="white"/>
</clipPath>
</defs>
</svg>
