<svg width="59" height="59" viewBox="0 0 59 59" fill="none" xmlns="http://www.w3.org/2000/svg">
<path d="M26.5498 39.0875L38.0303 30.4833C38.694 29.9917 38.694 29.0083 38.0303 28.5167L26.5498 19.9125C25.7386 19.2979 24.5832 19.8879 24.5832 20.8958V38.1042C24.5832 39.1121 25.7386 39.7021 26.5498 39.0875ZM29.4998 4.91667C15.9298 4.91667 4.9165 15.93 4.9165 29.5C4.9165 43.07 15.9298 54.0833 29.4998 54.0833C43.0698 54.0833 54.0832 43.07 54.0832 29.5C54.0832 15.93 43.0698 4.91667 29.4998 4.91667ZM29.4998 49.1667C18.6586 49.1667 9.83317 40.3413 9.83317 29.5C9.83317 18.6588 18.6586 9.83333 29.4998 9.83333C40.3411 9.83333 49.1665 18.6588 49.1665 29.5C49.1665 40.3413 40.3411 49.1667 29.4998 49.1667Z" fill="white"/>
</svg>
