<svg width="17" height="17" viewBox="0 0 17 17" fill="none" xmlns="http://www.w3.org/2000/svg">
<g clip-path="url(#clip0_459_877)">
<path d="M12.7075 12.7075C11.4967 13.6305 10.0223 14.1418 8.50004 14.1667C3.54171 14.1667 0.708374 8.5 0.708374 8.5C1.58946 6.85801 2.81151 5.42343 4.29254 4.2925M7.01254 3.00333C7.50011 2.8892 7.99929 2.83215 8.50004 2.83333C13.4584 2.83333 16.2917 8.5 16.2917 8.5C15.8617 9.30439 15.349 10.0617 14.7617 10.7596M10.0017 10.0017C9.80716 10.2104 9.57256 10.3779 9.3119 10.494C9.05123 10.6102 8.76985 10.6726 8.48452 10.6777C8.1992 10.6827 7.91578 10.6302 7.65118 10.5233C7.38658 10.4165 7.14622 10.2574 6.94443 10.0556C6.74265 9.85382 6.58357 9.61346 6.47669 9.34886C6.36982 9.08426 6.31733 8.80084 6.32236 8.51552C6.3274 8.23019 6.38985 7.9488 6.50599 7.68814C6.62214 7.42747 6.78959 7.19287 6.99837 6.99833" stroke="#002F72" stroke-width="1.5" stroke-linecap="round" stroke-linejoin="round"/>
<path d="M0.708374 0.708328L16.2917 16.2917" stroke="#002F72" stroke-width="1.5" stroke-linecap="round" stroke-linejoin="round"/>
</g>
<defs>
<clipPath id="clip0_459_877">
<rect width="17" height="17" fill="white"/>
</clipPath>
</defs>
</svg>
